<?xml version="1.0" encoding="utf-8"?>
<!-- Generator: Adobe Illustrator 22.1.0, SVG Export Plug-In . SVG Version: 6.00 Build 0)  -->
<svg version="1.1" id="Ebene_1" xmlns="http://www.w3.org/2000/svg" xmlns:xlink="http://www.w3.org/1999/xlink" x="0px" y="0px"
	 viewBox="0 0 590 590" style="enable-background:new 0 0 590 590;" xml:space="preserve">
<style type="text/css">
	.st0{fill:#FFFFFF;}
</style>
<path class="st0" d="M295.3,17.3c-153.4,0-277.8,124.4-277.8,277.8S141.8,573,295.3,573s277.8-124.4,277.8-277.8
	S448.7,17.3,295.3,17.3z M288.5,502.8c-25.7,0.6-44.9-16.5-45.8-40.8c-0.9-24.5,16.8-42.7,42.5-43.7c27-1,47.3,16.9,47.5,41.7
	C332.9,483.8,313.9,502.2,288.5,502.8z M399.9,252.8c-10.1,15.2-22.8,29.1-36.3,41.5c-23.4,21.4-43.4,43.9-40.3,80.2
	c-24.5,0-46.8,0-71.7,0c-3.1-38.7,7.1-71.8,35-99.8c15.4-15.4,34.1-30.5,41.8-49.6c6.5-16.1,5-41.1-3.7-55.8
	c-5.9-10-32.8-15.7-46-11.1c-15.2,5.4-25.6,24.3-44,43.6c-16.5,0-41.8,0-67,0c-0.3-50.7,22.9-86.5,67.5-103.4
	c37.5-14.2,75.9-14.3,113.6-1.3C412.8,119.3,438,195.4,399.9,252.8z"/>
</svg>