<svg xmlns="http://www.w3.org/2000/svg" viewBox="0 0 138.7 120.25"><defs><style>.a{fill:#b14b49;}.b{fill:#5c2121;}.c{fill:none;stroke:#5c2121;stroke-miterlimit:10;stroke-width:2px;}.d{fill:#384545;}.e{fill:#b24b49;}.f{fill:#233433;}</style></defs><title>progres_logo</title><path class="a" d="M32.27,67a2.54,2.54,0,0,1-1.5-.49A1.88,1.88,0,0,1,30,65a3.54,3.54,0,0,1,1.59-2.86,1.62,1.62,0,0,1,1.41,0l.1.05a8.07,8.07,0,0,0,0-.87c0-.17,0-.35,0-.54l0-.39.39,0c2-.22,2.09-.16,2.25,0l.15.13,0,.19a7.71,7.71,0,0,1-.65,3.87,4,4,0,0,1-2.47,2.32A2.51,2.51,0,0,1,32.27,67Zm-.08-4a.76.76,0,0,0-.27,0,2,2,0,0,0-.85,1.13,2.25,2.25,0,0,0-.2.84,1,1,0,0,0,.45.74A1.6,1.6,0,0,0,32.6,66a3.05,3.05,0,0,0,1.85-1.81,7.14,7.14,0,0,0,.6-3c-.27,0-.65.05-1,.08v.12a6.45,6.45,0,0,1-.22,1.81l-.33-.1-.76.13a.35.35,0,0,0-.19-.22A.76.76,0,0,0,32.19,63Z" transform="translate(-5.8 -24.34)"/><path class="a" d="M99.56,34.52c-.35-.05-4.24-.16-5.8-.1a3.36,3.36,0,0,1-1.7-.27,1.94,1.94,0,0,1-1-1.37,2.69,2.69,0,0,1,.54-2.16,5.22,5.22,0,0,1,3.14-1.53,10.06,10.06,0,0,1,4.42,0,2.58,2.58,0,0,1,.13-1.19,2.47,2.47,0,0,1,1.56-1.59,2.52,2.52,0,0,1,2.19.45,2.63,2.63,0,0,1,.91,1.29,45.09,45.09,0,0,1,8.23-3.14l.21.9a47.4,47.4,0,0,0-8.61,3.35l-.68.31,0-.75a1.54,1.54,0,0,0-.65-1.22,1.53,1.53,0,0,0-2.16,2.08l1,1.39-1.55-.7A8.05,8.05,0,0,0,95,30a4.33,4.33,0,0,0-2.59,1.2A1.78,1.78,0,0,0,92,32.6a1,1,0,0,0,.49.73,2.49,2.49,0,0,0,1.23.16c.72,0,2.06,0,3.59,0,2.65.06,2.65.06,2.77.41l-.44.15Z" transform="translate(-5.8 -24.34)"/><path class="a" d="M113.49,30.79l-.82-.43a5.39,5.39,0,0,1,2.4-2.23l.42.83A4.49,4.49,0,0,0,113.49,30.79Z" transform="translate(-5.8 -24.34)"/><path class="a" d="M139.69,69.36a2.63,2.63,0,0,1-.8-.12,2.36,2.36,0,0,1-1.57-2.85,2.61,2.61,0,0,1,.93-1.82,1.66,1.66,0,0,1,1.3-.29,1.37,1.37,0,0,1,.36.11,8.91,8.91,0,0,0,.58-2.76c.28-3.09.81-8.84-2.61-14.37-2.06-3.32-4.55-7.08-8.06-9.65a15,15,0,0,0-2.32-1.4l.41-.83a15.49,15.49,0,0,1,2.45,1.48c3.65,2.67,6.2,6.51,8.31,9.91,3.59,5.8,3,12,2.74,14.95a8,8,0,0,1-1,3.64l-.4.65-.39-.65a.39.39,0,0,0-.28-.17.78.78,0,0,0-.58.12,1.8,1.8,0,0,0-.56,1.21c-.19,1.47.65,1.74.93,1.83a1.94,1.94,0,0,0,.93,0,2.7,2.7,0,0,0,1.69-1c1.19-1.74,3.1-9.41.5-17.15a29.89,29.89,0,0,0-11-15.08,32.48,32.48,0,0,0-3.73-2.3L128,32a33.35,33.35,0,0,1,3.84,2.36A30.89,30.89,0,0,1,143.17,50c2.52,7.51.94,15.69-.62,18a3.6,3.6,0,0,1-2.26,1.38A3.05,3.05,0,0,1,139.69,69.36Z" transform="translate(-5.8 -24.34)"/><path class="a" d="M125.39,35.36a11.73,11.73,0,0,0-5-.51l-1,.18-.17-.91,1-.19a12.74,12.74,0,0,1,5.44.55Z" transform="translate(-5.8 -24.34)"/><path class="a" d="M124.91,31.76c-2.91-.88-6.19-.92-11.6-.69l0-.45-.06.47-.41-.49.46-.46c5.52-.23,8.87-.19,11.91.74Z" transform="translate(-5.8 -24.34)"/><path class="b" d="M92.39,51.47A4,4,0,0,1,90,50.73a2.31,2.31,0,0,1-.9-1.7l0-.29.25-.14,1-.6c1.15-.66,2-1.13,3.28-2a27.36,27.36,0,0,0,2.77-2l.36-.34c.18-.19.36-.35.51-.5a42.9,42.9,0,0,0-8.5,2.63h0a4.34,4.34,0,0,1-1.81.48A1.78,1.78,0,0,1,85.16,45a2.19,2.19,0,0,1,.34-1.43c2.21-4,6.62-6.14,11-7.81a5.85,5.85,0,0,0,2.24-1.22,4.82,4.82,0,0,0,.51-.66l.31-.44a8.76,8.76,0,0,1,4-2.67,15.93,15.93,0,0,1,10-.59A11.29,11.29,0,0,1,121,36.77c.08.21.15.43.23.64a5.37,5.37,0,0,0,1.6,2.77l.46.33-.42.38c-.1.1-2.44,2.25-3.28,3s-3.65,2.89-3.77,3l-.25.19-.27-.16a7,7,0,0,0-1-.49c-3.32-1.13-6.88-.18-10.84,1.09a55,55,0,0,0-7.22,2.7l-.42.21a9.88,9.88,0,0,1-2.71,1A4.51,4.51,0,0,1,92.39,51.47ZM90,49.24a1.33,1.33,0,0,0,.51.76,3.31,3.31,0,0,0,2.45.49,8.74,8.74,0,0,0,2.45-1l.43-.21a53.9,53.9,0,0,1,7.34-2.75c3.19-1,7.54-2.41,11.43-1.09a7.17,7.17,0,0,1,.89.41c.7-.54,2.76-2.14,3.5-2.76s2.14-1.92,2.86-2.57a7.19,7.19,0,0,1-1.51-2.85c-.07-.21-.14-.42-.22-.62a10.35,10.35,0,0,0-6.81-6,15.05,15.05,0,0,0-9.38.57A7.87,7.87,0,0,0,100.35,34l-.29.4a6.77,6.77,0,0,1-.59.76,6.57,6.57,0,0,1-2.58,1.46c-4.28,1.6-8.51,3.61-10.58,7.39a1.45,1.45,0,0,0-.24.81c.06.33.49.55.85.56a3.55,3.55,0,0,0,1.42-.4l0,0a43.85,43.85,0,0,1,10.47-3h0l.15.92h0a14.34,14.34,0,0,0-1.68,1.48l-.38.37a26.56,26.56,0,0,1-2.88,2.08c-1.33.85-2.21,1.36-3.33,2Z" transform="translate(-5.8 -24.34)"/><path class="b" d="M102.88,39.22a4,4,0,0,1-1.91-.35,1.25,1.25,0,0,1-.65-1.08c0-1.17,1.42-2.54,2.19-3h0a4.29,4.29,0,0,1,4.21-.2,3.55,3.55,0,0,1,1.79,3.82l-.09.35h-.35c-.41,0-1,.09-1.77.18A30.45,30.45,0,0,1,102.88,39.22Zm.12-3.66c-.78.48-1.76,1.62-1.75,2.22a.29.29,0,0,0,.19.28c.75.44,3.15.14,4.74-.06.56-.06,1.07-.13,1.48-.16a2.68,2.68,0,0,0-1.38-2.45,3.33,3.33,0,0,0-3.28.17Z" transform="translate(-5.8 -24.34)"/><path class="b" d="M16.68,85.24c-.38-.42-.75-.84-1.11-1.28-2.27-2.7-7.27-9.79-4.92-17.2a13.39,13.39,0,0,1,2.47-4.5l.71.59A12.7,12.7,0,0,0,11.53,67c-2.21,7,2.58,13.74,4.75,16.33.35.42.72.84,1.09,1.24Z" transform="translate(-5.8 -24.34)"/><path class="c" d="M13.47,62.56" transform="translate(-5.8 -24.34)"/><path class="c" d="M15.57,60.44" transform="translate(-5.8 -24.34)"/><path class="b" d="M15.87,60.79l-.6-.7A28.31,28.31,0,0,1,24.7,55c1.49-.5,3-.94,4.57-1.3l.22.9c-1.52.36-3,.79-4.49,1.28A27.7,27.7,0,0,0,15.87,60.79Z" transform="translate(-5.8 -24.34)"/><path class="b" d="M35.9,53.53l-.1-.93c1.62-.17,3.26-.28,4.9-.31l0,.92C39.11,53.25,37.49,53.35,35.9,53.53Z" transform="translate(-5.8 -24.34)"/><path class="b" d="M79.62,67.78A55.51,55.51,0,0,0,51.17,54l.15-.92a56.53,56.53,0,0,1,28.94,14Z" transform="translate(-5.8 -24.34)"/><path class="b" d="M84.8,72.89c-.49-.45-1-1-1.68-1.63l.66-.65c.64.64,1.17,1.15,1.66,1.61Z" transform="translate(-5.8 -24.34)"/><path class="b" d="M94.38,77.76a14.89,14.89,0,0,1-1.55-.2,3.14,3.14,0,0,1-.59-.21,2.15,2.15,0,0,0-.32-.13l.25-.89a4.49,4.49,0,0,1,.44.17,3.45,3.45,0,0,0,.4.15,12.58,12.58,0,0,0,1.44.18Z" transform="translate(-5.8 -24.34)"/><path class="b" d="M110.37,70.82l-.68-.63A27.71,27.71,0,0,0,112,67.32l.76.53A28.57,28.57,0,0,1,110.37,70.82Z" transform="translate(-5.8 -24.34)"/><path class="b" d="M126.43,64.09l-.89-.27a26.67,26.67,0,0,0-2.16-20.72,70.68,70.68,0,0,1-5.62,5l-.21.17c.06.21.12.5.2.87a16.49,16.49,0,0,1-.59,10.46l-.86-.34a15.47,15.47,0,0,0,.55-9.92c0-.15-.06-.27-.09-.38l-.38.33.22-1.62h.23l.35-.28a69,69,0,0,0,6-5.32l.43-.42.3.51A27.56,27.56,0,0,1,126.43,64.09Z" transform="translate(-5.8 -24.34)"/><path class="b" d="M119.79,75.75l-.69-.62A28.35,28.35,0,0,0,121.56,72l.77.53A31.19,31.19,0,0,1,119.79,75.75Z" transform="translate(-5.8 -24.34)"/><path class="c" d="M106.74,84.64" transform="translate(-5.8 -24.34)"/><path class="b" d="M93.63,88.66l-1.08-.11C88.7,88.3,84.11,85.71,81,83.79l.48-.79c3,1.87,7.5,4.39,11.15,4.63l1.1.11Z" transform="translate(-5.8 -24.34)"/><path class="b" d="M74.09,78.92c-.65-.5-1.32-1-2.19-1.79l.6-.71c.86.73,1.52,1.27,2.16,1.77Z" transform="translate(-5.8 -24.34)"/><path class="b" d="M67.55,73.5l-.83-.63a52.66,52.66,0,0,0-10.6-6l.39-.84-.19.42.19-.42a53.55,53.55,0,0,1,10.76,6.11c.29.21.57.43.85.65Z" transform="translate(-5.8 -24.34)"/><path class="b" d="M18.81,65.78l-.48-.8a19.11,19.11,0,0,1,2.45-1.23,40.35,40.35,0,0,1,16.68-3.47l0,.92a39.49,39.49,0,0,0-16.29,3.4A18,18,0,0,0,18.81,65.78Z" transform="translate(-5.8 -24.34)"/><path class="b" d="M18.07,84.13c-.16-.19-.31-.37-.45-.56a17.13,17.13,0,0,1-3.44-11.23c.06-1,.39-4.36,2.12-5.72l.58.73c-1.14.89-1.66,3.19-1.77,5A16.17,16.17,0,0,0,18.35,83l.43.54Z" transform="translate(-5.8 -24.34)"/><path class="a" d="M115.62,86.78A11.32,11.32,0,0,1,108,84.23l.62-.69c3.13,2.78,8,2.68,11.57,1.66a15.61,15.61,0,0,0,2.86-1.09,12.25,12.25,0,0,0,6.14-12.44,14.62,14.62,0,0,0-8.94-11.08,11.33,11.33,0,0,0-3.73-.75l0-.93a12.16,12.16,0,0,1,4,.82,15.6,15.6,0,0,1,9.5,11.81,13.2,13.2,0,0,1-6.64,13.4,17.11,17.11,0,0,1-3,1.15A17.79,17.79,0,0,1,115.62,86.78Z" transform="translate(-5.8 -24.34)"/><path class="a" d="M118.05,78.72a3.08,3.08,0,0,1-.61-.06,4.68,4.68,0,0,1-.66-.2l.33-.87a3.22,3.22,0,0,0,.5.16,3.06,3.06,0,0,0,2.86-1.24,5.81,5.81,0,0,0,1.06-3.3,6.44,6.44,0,0,0,0-1l.93-.08a8.14,8.14,0,0,1,0,1.11,6.64,6.64,0,0,1-1.25,3.82A4.08,4.08,0,0,1,118.05,78.72Z" transform="translate(-5.8 -24.34)"/><path class="a" d="M121.51,72.22a3.68,3.68,0,0,0-1-2.49,5.22,5.22,0,0,0-2.46-1A29.07,29.07,0,0,0,112.1,68v-.92a28.12,28.12,0,0,1,6.09.66,6,6,0,0,1,2.91,1.27,4.64,4.64,0,0,1,1.33,3.09Z" transform="translate(-5.8 -24.34)"/><path class="a" d="M100.11,70.39l-.15-.11c-5.61-4.2-5.59-4.41-5.56-4.71l0-.26.24-.13a66.41,66.41,0,0,1,16.85-5.86,21.52,21.52,0,0,1,5.07-.41l0,.93a20.75,20.75,0,0,0-4.85.39,64.87,64.87,0,0,0-16,5.51c.89.76,3.07,2.44,4.72,3.67a15.59,15.59,0,0,0,1.51-.49c.66-.24,1.42-.51,2.15-.71a29.45,29.45,0,0,1,8.09-1.09V68H112a28.9,28.9,0,0,0-7.74,1.06c-.7.2-1.44.46-2.09.7a11.61,11.61,0,0,1-1.89.57Z" transform="translate(-5.8 -24.34)"/><path class="d" d="M122.47,98.23a4.23,4.23,0,0,1-1.39-.31l-2.33-.83a.52.52,0,0,0-.75.13l-.25.22a2.41,2.41,0,0,1-2.63,0,6.76,6.76,0,0,1-1.3-1.06l-.48-.45a10.42,10.42,0,0,0-6.73-2.25c-.6,0-1.23-.07-1.84-.12-2-.16-4-.33-5.38.79-.63.52-2.55.53-4.53-.81a3.09,3.09,0,0,1-1-2.56,6.39,6.39,0,0,0-.11-.94,12,12,0,0,0-.63-2,11.36,11.36,0,0,1-.75-2.61,5.82,5.82,0,0,1,6-6.5,8.92,8.92,0,0,1,2.42.49c2.24.72,5.18,2.19,6.5,5,.22.47.39,1,.57,1.47.46,1.33.9,2.58,2,3a4.29,4.29,0,0,0,1.35.22h0c.36,0,.74,0,1.12,0a8.9,8.9,0,0,1,3.53.5,3.81,3.81,0,0,1,1.25.86,3.83,3.83,0,0,1,.64-.87,5.89,5.89,0,0,1,3.24-1.6,4.83,4.83,0,0,1,3.9.67,2.34,2.34,0,0,1,.89,1.64,1.45,1.45,0,0,1-.42,1.14l0,0a2.53,2.53,0,0,1,.9,1.5,2,2,0,0,1-.43,1.55,1.56,1.56,0,0,1-1.18.6h0a2,2,0,0,1,.08.35,2.5,2.5,0,0,1-.48,1.82,2,2,0,0,1-1.37.85Zm-4.11-2.17a2,2,0,0,1,.7.16l2.33.82a2.67,2.67,0,0,0,1.25.25,1.15,1.15,0,0,0,.76-.48,1.56,1.56,0,0,0,.3-1.13,1.9,1.9,0,0,0-.45-1l-.13-.08a6.18,6.18,0,0,0-3.57-.74l-.14-.92a5.58,5.58,0,0,1,3.1.13,3.54,3.54,0,0,1,1.32.87,1.64,1.64,0,0,0,.74.27.69.69,0,0,0,.48-.26,1,1,0,0,0,.23-.81,1.94,1.94,0,0,0-1-1.26h0a4.61,4.61,0,0,1-1.29-.25,6,6,0,0,0-.74-.18,3.42,3.42,0,0,0-.9.18l-2.5.88,2-1.67a1.7,1.7,0,0,1,1.38-.33,4.63,4.63,0,0,1,2.2.42.47.47,0,0,0,.24-.13.5.5,0,0,0,.15-.42,1.43,1.43,0,0,0-.54-1,4,4,0,0,0-3.16-.49,5.06,5.06,0,0,0-2.74,1.33,3.21,3.21,0,0,0-.73,1.22,2.38,2.38,0,0,1,0,1,1.3,1.3,0,0,0,0,.47l-.88.28h0a3.15,3.15,0,0,1-.07-1.67,2.56,2.56,0,0,0-1.24-1,8.47,8.47,0,0,0-3.16-.43c-.4,0-.79,0-1.16,0a5.38,5.38,0,0,1-1.64-.28c-1.5-.6-2-2.11-2.54-3.57-.17-.49-.34-1-.53-1.39-.92-2-3-3.62-5.94-4.56a8,8,0,0,0-2.17-.44,4.89,4.89,0,0,0-3.76,1.58,5,5,0,0,0-1.26,3.88,10.29,10.29,0,0,0,.7,2.39,12.4,12.4,0,0,1,.67,2.14,8.86,8.86,0,0,1,.13,1c.06.79.11,1.53.6,1.86,1.71,1.16,3.18,1.06,3.41.87,1.64-1.37,3.88-1.18,6-1,.63,0,1.22.1,1.79.11A11.37,11.37,0,0,1,114,95.21l.5.47a5.69,5.69,0,0,0,1.13.93,1.5,1.5,0,0,0,1.6.08c.06,0,.12-.1.18-.15a1.65,1.65,0,0,1,.69-.44A1,1,0,0,1,118.36,96.06Z" transform="translate(-5.8 -24.34)"/><path class="a" d="M30,74.19C29,73.65,28,73.07,27.09,72.58a32.57,32.57,0,0,1-7.91-5.75,30.72,30.72,0,0,1-4.36-6.75,22.47,22.47,0,0,1-2.29-5.69,16.4,16.4,0,0,1-.25-4.32c.09-1.63.4-4,2-5.58a7.73,7.73,0,0,1,6.13-2.08A12,12,0,0,1,25.61,45a21.42,21.42,0,0,1,6.85,8.47l-.85.38A20.22,20.22,0,0,0,25,45.69a11.13,11.13,0,0,0-4.84-2.36,6.75,6.75,0,0,0-5.3,1.81c-1,1-1.56,2.62-1.7,5a15.42,15.42,0,0,0,.24,4.08,21.64,21.64,0,0,0,2.2,5.45,29.42,29.42,0,0,0,4.23,6.55c2,2.23,4.58,3.78,7.69,5.57.84.49,1.85,1.06,2.88,1.6Z" transform="translate(-5.8 -24.34)"/><path class="a" d="M26.36,75.59,25,74.73c-1.41-.9-2.54-1.68-3.53-2.44a33.33,33.33,0,0,1-9.94-12.54,19.9,19.9,0,0,1-2-9.65,11.24,11.24,0,0,1,4.68-8.61A9.29,9.29,0,0,1,19.64,40c2.62.12,5.32,1.38,8,3.73a26.05,26.05,0,0,1,6.81,9.41l-.85.36A25.26,25.26,0,0,0,27,44.41C24.51,42.2,22,41,19.59,40.9a8.34,8.34,0,0,0-4.95,1.36,10.35,10.35,0,0,0-4.27,7.91,18.9,18.9,0,0,0,2,9.19A32.39,32.39,0,0,0,22,71.55c1,.75,2.07,1.51,3.46,2.39.45.29.91.58,1.38.86Z" transform="translate(-5.8 -24.34)"/><path class="a" d="M40,79.78a37.55,37.55,0,0,1-4.36-.61l.18-.91a38,38,0,0,0,4.26.6Z" transform="translate(-5.8 -24.34)"/><path class="d" d="M22.44,96.64h-.08a3.13,3.13,0,0,1-1.36-.5,3,3,0,0,0-.79-.35,2.58,2.58,0,0,0-.79,0h-.07l-.05-.93h.06a3.74,3.74,0,0,1,1.05,0,3.62,3.62,0,0,1,1,.46,2.46,2.46,0,0,0,.95.37c.64,0,1.14-.67,1.21-1.32A5,5,0,0,0,23,92.05a2.07,2.07,0,0,0-.52-.85A1.63,1.63,0,0,0,21.38,91a8.06,8.06,0,0,0-3.86,1.48L17,91.79l4-3.3.59.71-1.32,1.09a7.27,7.27,0,0,1,1-.17,2.49,2.49,0,0,1,1.79.33,2.78,2.78,0,0,1,.83,1.24,5.78,5.78,0,0,1,.63,2.8A2.31,2.31,0,0,1,22.44,96.64Z" transform="translate(-5.8 -24.34)"/><path class="d" d="M23,88l-.59-.72,2.16-1.77c1.38-1.14,2.81-2.31,4.31-3.37a49.14,49.14,0,0,1,11.41-6l.33.86a48.79,48.79,0,0,0-11.21,5.89c-1.46,1-2.88,2.2-4.25,3.32Z" transform="translate(-5.8 -24.34)"/><path class="d" d="M48.72,73.2l-.38-.84c2.42-1.1,5.44-2.46,7-5a7.56,7.56,0,0,0,.14-7.43c-1.08-2-3.78-4.14-6.08-4.14h0v-.93h0c2.71,0,5.69,2.4,6.9,4.63a8.52,8.52,0,0,1-.17,8.36C54.42,70.63,51.26,72.06,48.72,73.2Z" transform="translate(-5.8 -24.34)"/><path class="d" d="M20.38,85.82l-.71-.6a24,24,0,0,0,4.46-8,3.42,3.42,0,0,1,1.22-2,3.16,3.16,0,0,1,1-.39l.1,0a20.65,20.65,0,0,0,7.06-3.66c1.23-.92,2.44-1.9,3.59-2.92l.62.69c-1.17,1-2.4,2-3.66,3a21.38,21.38,0,0,1-7.39,3.82l-.1,0a2.27,2.27,0,0,0-.76.26A2.65,2.65,0,0,0,25,77.42,25.24,25.24,0,0,1,20.38,85.82Z" transform="translate(-5.8 -24.34)"/><path class="d" d="M11.76,96.12a2.94,2.94,0,0,1-1.25-.25,1.84,1.84,0,0,1-1-1.09,2.34,2.34,0,0,1,.68-2.31,6.06,6.06,0,0,1,1.65-1l.17-.09a23.73,23.73,0,0,0,6.39-4.69l.66.65a24.78,24.78,0,0,1-6.63,4.87l-.18.09a5.14,5.14,0,0,0-1.4.88,1.44,1.44,0,0,0-.46,1.35.94.94,0,0,0,.52.55A2.84,2.84,0,0,0,13,95l.7-.31A4.67,4.67,0,0,1,16.75,94a5.1,5.1,0,0,1,1,.43,3.18,3.18,0,0,0,.89.37l.29.06c.42.09.64.13.79,0,.47-.41.69-.74.69-1a1.8,1.8,0,0,0-.62-1,2,2,0,0,0-.52-.45,1.77,1.77,0,0,0-1.07-.06,7.56,7.56,0,0,0-2.36.79l-.43-.82A8.49,8.49,0,0,1,18,91.41a2.6,2.6,0,0,1,1.65.16,2.66,2.66,0,0,1,.76.63,2.47,2.47,0,0,1,.87,1.64,2.36,2.36,0,0,1-1,1.75,1.69,1.69,0,0,1-1.59.21l-.26-.06a4.08,4.08,0,0,1-1.16-.46,4.08,4.08,0,0,0-.78-.35,3.9,3.9,0,0,0-2.46.56l-.74.33A4.23,4.23,0,0,1,11.76,96.12Z" transform="translate(-5.8 -24.34)"/><path class="a" d="M96.32,77.69c-.61-.48-1.43-1.23-2.22-2-.52-.48-1-.94-1.38-1.25-.8-.68-4.23-3.52-7-5.77l.58-.73c2.63,2.12,6.14,5,7,5.79.38.33.87.79,1.4,1.27.74.69,1.59,1.46,2.17,1.92Z" transform="translate(-5.8 -24.34)"/><path class="a" d="M52.14,76.64c-.77-.57-1.67-1.28-2.43-1.88a8.7,8.7,0,0,1-2.17-2.23,8.39,8.39,0,0,1-.81-2.15c-.72-2.79-1.53-6.94-.2-10.74.81-2.32,2.77-6.39,6.74-7.67,3-.95,6.7-.18,10,.63a24.42,24.42,0,0,1,5.85,2.17,38.78,38.78,0,0,1,6.28,4.51c2.9,2.4,5.53,4.47,8.68,6.92l-.57.73c-3.15-2.45-5.79-4.52-8.71-6.93a38.09,38.09,0,0,0-6.12-4.42A24,24,0,0,0,63,53.5c-3.14-.77-6.72-1.53-9.46-.65C50,54,48.16,57.79,47.4,60c-1.24,3.55-.46,7.52.23,10.2a7.16,7.16,0,0,0,.71,1.91,7.93,7.93,0,0,0,1.95,2c.75.6,1.65,1.3,2.4,1.87Z" transform="translate(-5.8 -24.34)"/><path class="a" d="M64.21,81.13A17.68,17.68,0,0,1,57.86,80a8.8,8.8,0,0,1-1-.45l-.38-.2.41-.83.4.21a7.07,7.07,0,0,0,.87.4c5.44,2.09,11.21.73,15.09-.78A70.19,70.19,0,0,0,84.1,72.63c1-.6,2-1.21,3-1.79.39-.23,1.12-.81,1.13-.81l.57.73s-.79.62-1.23.88c-1,.58-2,1.18-3,1.78a71.94,71.94,0,0,1-11,5.8A26.69,26.69,0,0,1,64.21,81.13Z" transform="translate(-5.8 -24.34)"/><path class="a" d="M62.18,88.12a37.51,37.51,0,0,1-7.39-.68c-4.85-1-8.54-3.28-12.35-7.65l.7-.61c3.67,4.21,7.2,6.41,11.83,7.35a39.88,39.88,0,0,0,12.29.35c3.6-.48,8.83-1.34,12.6-3.28,4.58-2.36,13.07-8,13.43-8.25h0l.39-.25h0l.29-.19.51.77L94,76l-.3.2h0c-1,.65-9,6-13.44,8.24-3.89,2-9.23,2.89-12.9,3.38A40.53,40.53,0,0,1,62.18,88.12Z" transform="translate(-5.8 -24.34)"/><path class="a" d="M40.15,76.88A23.57,23.57,0,0,1,36.64,65,20.92,20.92,0,0,1,43,49.36c5.21-4.81,13.53-6.6,21.7-4.68C72.22,46.45,77.18,50.4,82.92,55c1.33,1.06,5.91,4.73,8.69,7.3L91,63c-2.76-2.55-7.31-6.2-8.64-7.26C76.45,51,71.8,47.31,64.51,45.59c-7.87-1.86-15.86-.15-20.85,4.45A20,20,0,0,0,37.57,65a22.57,22.57,0,0,0,3.36,11.4Z" transform="translate(-5.8 -24.34)"/><path class="a" d="M105,74.67a33.68,33.68,0,0,0-3.89-3.54c-2.38-1.79-5.33-4-8-6.28l.6-.71c2.66,2.25,5.6,4.47,8,6.25a31.33,31.33,0,0,1,4.12,3.79Z" transform="translate(-5.8 -24.34)"/><path class="a" d="M82.39,70.51,80,68.13l1.13-.57a213.17,213.17,0,0,0,37.74-24.31,22.43,22.43,0,0,0,4.68-4.65,7.8,7.8,0,0,0,1.42-6,5.92,5.92,0,0,0-4.87-4.4,7.56,7.56,0,0,0-.85-.06v-.92a7.5,7.5,0,0,1,1,.06,6.88,6.88,0,0,1,5.66,5.11,8.77,8.77,0,0,1-1.56,6.77A23.62,23.62,0,0,1,119.46,44a213.9,213.9,0,0,1-37.89,24.4l1,1,.33-.15c13.26-6,25.85-14.34,38.49-25.59,3.07-2.73,6.19-6.06,6.06-10a8.75,8.75,0,0,0-5.17-7.24,14.75,14.75,0,0,0-9.36-.7l-.51.11-.21-.9.52-.12a15.69,15.69,0,0,1,10,.77,9.71,9.71,0,0,1,5.7,8c.14,4.35-3.15,7.87-6.38,10.75C109.31,55.68,96.65,64.1,83.3,70.11Z" transform="translate(-5.8 -24.34)"/><path class="a" d="M115.49,29l-.42-.83a9.22,9.22,0,0,1,4.2-.95v.92A8.59,8.59,0,0,0,115.49,29Z" transform="translate(-5.8 -24.34)"/><path class="a" d="M44.92,80c-1.65,0-3.31,0-4.94-.2a.46.46,0,0,1-.42-.5.45.45,0,0,1,.5-.42,84.91,84.91,0,0,0,12.37-.09c6.51-.4,12.36-.9,17.85-3-.68-.61-.76-.68-1.78-1.53-9.46,2.09-20.94,3.26-28,2.84a.45.45,0,0,1-.43-.49.45.45,0,0,1,.49-.43c7,.41,18.53-.77,27.95-2.87l.23,0,.29.24c1.16,1,1.16,1,2,1.76l.93.84-.68.28c-5.82,2.36-12,2.9-18.83,3.32C50.13,79.84,47.54,80,44.92,80Z" transform="translate(-5.8 -24.34)"/><path class="b" d="M42.4,97.22c-.4,0-.83,0-1.27,0A37.66,37.66,0,0,1,16.68,85.24l.69-.63A36.65,36.65,0,0,0,41.2,96.24c2.95.24,4.94-.34,5.91-1.73.12-.17.23-.36.35-.56a3.54,3.54,0,0,1,1.16-1.38c1.18-.72,2.41-.06,3.5.52a4,4,0,0,0,2.48.76,3.87,3.87,0,0,0,1.24-.64,3.23,3.23,0,0,1,2-.8,3.55,3.55,0,0,1,1.89.92,1.7,1.7,0,0,0,2.19.52,4.12,4.12,0,0,1,.82-.24,4.07,4.07,0,0,1,2.3.52,6.65,6.65,0,0,0,.61.27,1.76,1.76,0,0,0,1.78-.14A4.42,4.42,0,0,0,63.76,92H63.5a3.1,3.1,0,0,1-1.11-.12A3.17,3.17,0,0,1,61,90.55c-.31-.44-.59-.86-1-1-.55-.2-1.08.14-1.87.71a4.68,4.68,0,0,1-1.93,1c-1.45.24-2.61-.82-3.62-1.76S50.85,87.94,50,88a3.29,3.29,0,0,1-1.08,2.1,3.18,3.18,0,0,1-2.59.87,5.7,5.7,0,0,1-.74-.16,2.62,2.62,0,0,0-1-.15c-.57.09-1,.61-1.45,1.17-.2.24-.41.5-.64.73-2.13,2.11-5.5,1.4-8.2.54-6-1.91-12.21-4.18-16.2-9l.71-.59c3.83,4.61,9.89,6.82,15.77,8.69C37,93,40,93.67,41.82,91.91a6.3,6.3,0,0,0,.57-.66,3.52,3.52,0,0,1,2-1.5,3.63,3.63,0,0,1,1.42.17,4,4,0,0,0,.63.14,2.42,2.42,0,0,0,2.61-2.41l0-.36.35-.11c1.5-.47,2.7.65,3.76,1.63S55,90.51,56,90.34a4.28,4.28,0,0,0,1.55-.83,3,3,0,0,1,2.72-.84A3.12,3.12,0,0,1,61.71,90c.31.44.59.86,1,1a2.2,2.2,0,0,0,.79.07h.29a5.38,5.38,0,0,1,4.66,3l.09.19-.09.2c-.49,1.09-2,1.22-3.08.78-.22-.08-.43-.18-.65-.28a3.28,3.28,0,0,0-1.78-.45,3.43,3.43,0,0,0-.63.19,3.17,3.17,0,0,1-1.1.26h0a3.26,3.26,0,0,1-2-.91,2.68,2.68,0,0,0-1.37-.73,2.57,2.57,0,0,0-1.48.63,4.47,4.47,0,0,1-1.57.79,4.77,4.77,0,0,1-3.11-.85c-1.15-.62-1.9-1-2.58-.55a2.87,2.87,0,0,0-.84,1.06,7.18,7.18,0,0,1-.39.63C46.86,96.49,45,97.22,42.4,97.22Z" transform="translate(-5.8 -24.34)"/><path class="b" d="M95.4,77.79c-.35,0-.68,0-1,0l.07-.93a18.81,18.81,0,0,0,10.46-2.65,23.1,23.1,0,0,0,4.78-4l.68.63a23.68,23.68,0,0,1-5,4.14A19.92,19.92,0,0,1,95.4,77.79Z" transform="translate(-5.8 -24.34)"/><path class="b" d="M106.94,85.06l-.4-.84c5.46-2.62,9.68-5.67,12.55-9.08l.71.6C116.85,79.25,112.52,82.38,106.94,85.06Z" transform="translate(-5.8 -24.34)"/><path class="b" d="M83.12,71.26l-1-1c-.53-.54-1.06-1.08-1.59-1.6-.31-.31-.62-.6-.94-.9l.64-.68.95.91c.53.53,1.07,1.07,1.6,1.62l1,1Z" transform="translate(-5.8 -24.34)"/><path class="b" d="M71.9,77.13c-.38-.31-.75-.63-1.12-.95-1-.9-2.13-1.82-3.23-2.68l.57-.73c1.12.87,2.21,1.8,3.26,2.7.37.32.74.64,1.12,1Z" transform="translate(-5.8 -24.34)"/><path class="b" d="M29.49,54.63l-.22-.9A52.71,52.71,0,0,1,35.8,52.6l.1.93A50.47,50.47,0,0,0,29.49,54.63Z" transform="translate(-5.8 -24.34)"/><path class="e" d="M11,124.56c-4.16,0-4.54-3-4.54-4.55,0-3.06,1.7-4.79,4.63-4.79a4.9,4.9,0,0,1,2.27.38s0,.29,0,.83,0,.9,0,.9a2.36,2.36,0,0,0-2.26-1.26c-1.31,0-3.25.56-3.25,3.87,0,2.06.65,3.77,3.2,3.77a2.39,2.39,0,0,0,2.31-1.28s0,.42,0,1,0,.78,0,.78A6.62,6.62,0,0,1,11,124.56Z" transform="translate(-5.8 -24.34)"/><path class="e" d="M17.38,121.31a6.91,6.91,0,0,1-1.56-.17c0,1.11.41,2.57,2.19,2.57s2.21-.91,2.21-.91c0,.94-.67,1.82-2.49,1.82-2.32,0-3.23-1.59-3.23-3.66,0-3.28,1.77-3.92,3.08-3.92,1.72,0,2.73.74,2.73,2C20.31,120.67,19.3,121.31,17.38,121.31Zm.2-3.53c-1,0-1.76.48-1.76,2.63a5.81,5.81,0,0,0,1.46.13c.61,0,1.71-.09,1.71-1.38A1.24,1.24,0,0,0,17.58,117.78Z" transform="translate(-5.8 -24.34)"/><path class="e" d="M28.38,124.49s-.31,0-1.07,0-1,0-1,0l.12-.22c.2-.38.32-.47.32-3.27a5.23,5.23,0,0,0-.29-2.47,1.28,1.28,0,0,0-1.24-.59c-1.42,0-1.63.85-1.63.85V121c0,2.8.12,2.9.33,3.28l.11.22s-.28,0-1,0-1.07,0-1.07,0l.12-.22c.2-.38.32-.48.32-3.28v-.4c0-2.23-.12-2.59-.32-3l-.12-.22,1.67-.32-.05,1.61A2,2,0,0,1,25.64,117a2,2,0,0,1,1.95.95,5.52,5.52,0,0,1,.35,2.66V121c0,2.8.12,2.9.32,3.28Z" transform="translate(-5.8 -24.34)"/><path class="e" d="M32.14,124.6a1.53,1.53,0,0,1-1.42-.65,3.08,3.08,0,0,1-.29-1.68c0-3.24,0-4.27,0-4.27h-.82a4.4,4.4,0,0,0,.89-1.08,7.89,7.89,0,0,0,.68-1.3h.49v1.61h.85a2.91,2.91,0,0,0,1.26-.14s0,.18,0,.53,0,.51,0,.51a3,3,0,0,0-1.26-.13H31.7v4.34a2,2,0,0,0,.17,1,.88.88,0,0,0,.9.46,1.51,1.51,0,0,0,1.08-.39C33.85,123.56,33.77,124.6,32.14,124.6Z" transform="translate(-5.8 -24.34)"/><path class="e" d="M37.69,117.91a1.94,1.94,0,0,0-1.13.4V121c0,2.8.13,2.9.32,3.28l.13.22s-.29,0-1,0-1.07,0-1.07,0l.12-.22c.2-.38.32-.48.32-3.28v-.47a27.74,27.74,0,0,0-.12-3.48l1.15.54a3.22,3.22,0,0,1,1.8-.56,2,2,0,0,1,1.07.24s0,.3,0,.81,0,.87,0,.87A1.67,1.67,0,0,0,37.69,117.91Z" transform="translate(-5.8 -24.34)"/><path class="e" d="M42.79,121.31a6.91,6.91,0,0,1-1.56-.17c0,1.11.42,2.57,2.19,2.57s2.21-.91,2.21-.91c0,.94-.67,1.82-2.49,1.82-2.32,0-3.23-1.59-3.23-3.66,0-3.28,1.77-3.92,3.09-3.92,1.71,0,2.72.74,2.72,2C45.72,120.67,44.71,121.31,42.79,121.31Zm.21-3.53c-1,0-1.77.48-1.77,2.63a5.81,5.81,0,0,0,1.46.13c.61,0,1.71-.09,1.71-1.38A1.23,1.23,0,0,0,43,117.78Z" transform="translate(-5.8 -24.34)"/><path class="e" d="M51.37,124.46c-.76,0-1,0-1,0l.11-.22c.26-.5.33-.85.33-3.28v-2.86H50a1.62,1.62,0,0,0,.76-1.47v-2.31h3s0,.19,0,.53,0,.55,0,.55a2,2,0,0,0-1.26-.27H52v2.19h.45a3.14,3.14,0,0,0,1.26-.15s0,.21,0,.56,0,.52,0,.52a3.55,3.55,0,0,0-1.26-.14H52V121c0,2.41.06,2.78.33,3.3l.12.22S52.14,124.46,51.37,124.46Z" transform="translate(-5.8 -24.34)"/><path class="e" d="M57.73,124.65a3.51,3.51,0,0,1-3.37-3.8A3.65,3.65,0,0,1,57.81,117a3.52,3.52,0,0,1,3.37,3.81A3.65,3.65,0,0,1,57.73,124.65Zm.08-6.85c-.9.16-2.09.86-2.09,3s1.1,2.86,2,3c.91-.17,2.08-.86,2.08-3S58.72,118,57.81,117.8Z" transform="translate(-5.8 -24.34)"/><path class="e" d="M65.55,117.91a1.94,1.94,0,0,0-1.13.4V121c0,2.8.13,2.9.32,3.28l.13.22s-.3,0-1.05,0-1.07,0-1.07,0l.11-.22c.21-.38.32-.48.32-3.28v-.47a30.24,30.24,0,0,0-.11-3.48l1.14.54A3.3,3.3,0,0,1,66,117a2,2,0,0,1,1.06.24s0,.3,0,.81,0,.87,0,.87A1.67,1.67,0,0,0,65.55,117.91Z" transform="translate(-5.8 -24.34)"/><path class="e" d="M73,124.6a1.52,1.52,0,0,1-1.41-.65,3,3,0,0,1-.3-1.68c0-3.24,0-4.27,0-4.27h-.82a4.51,4.51,0,0,0,.88-1.08,7.55,7.55,0,0,0,.69-1.3h.48v1.61h.85a2.85,2.85,0,0,0,1.26-.14s0,.18,0,.53,0,.51,0,.51a3,3,0,0,0-1.26-.13h-.85v4.34a2.16,2.16,0,0,0,.17,1,.88.88,0,0,0,.9.46,1.51,1.51,0,0,0,1.08-.39C74.71,123.56,74.64,124.6,73,124.6Z" transform="translate(-5.8 -24.34)"/><path class="e" d="M82.19,124.49s-.3,0-1.06,0-1,0-1,0l.11-.22c.21-.38.34-.44.34-3.24a5.39,5.39,0,0,0-.28-2.47A1.3,1.3,0,0,0,79,118c-1.4,0-1.62.87-1.62.87V121c0,2.8.11,2.9.32,3.28l.11.22s-.28,0-1,0-1,0-1,0l.11-.22c.21-.38.32-.48.32-3.28v-3.14c0-2.23-.11-2.59-.32-3l-.11-.22,1.7-.32s0,1.31,0,2.24v1.12c0,.52,0,1,0,1A2,2,0,0,1,79.46,117a2,2,0,0,1,2,.95,5.69,5.69,0,0,1,.34,2.66V121c0,2.8.11,2.9.31,3.28Z" transform="translate(-5.8 -24.34)"/><path class="e" d="M86.56,121.31a6.76,6.76,0,0,1-1.55-.17c0,1.11.41,2.57,2.18,2.57s2.22-.91,2.22-.91c0,.94-.67,1.82-2.5,1.82-2.31,0-3.23-1.59-3.23-3.66,0-3.28,1.78-3.92,3.09-3.92,1.71,0,2.73.74,2.73,2C89.5,120.67,88.48,121.31,86.56,121.31Zm.21-3.53c-1,0-1.76.48-1.76,2.63a5.66,5.66,0,0,0,1.45.13c.62,0,1.71-.09,1.71-1.38A1.23,1.23,0,0,0,86.77,117.78Z" transform="translate(-5.8 -24.34)"/><path class="e" d="M96.21,124.56a4.68,4.68,0,0,1-2.14-.37s0-.28,0-.78,0-1,0-1a2.33,2.33,0,0,0,2.11,1.27c.57,0,1.67-.07,1.67-1.29,0-.58-.18-1-1.06-1.55l-1-.6c-1-.62-1.85-1.19-1.85-2.67,0-1.24.77-2.38,2.94-2.38a5,5,0,0,1,2.21.39s0,.29,0,.82,0,.92,0,.92a2.38,2.38,0,0,0-2.24-1.28c-1,0-1.69.4-1.69,1.39s.63,1.28,1.25,1.65l.84.5c1.21.73,1.88,1.24,1.88,2.64S98.25,124.56,96.21,124.56Z" transform="translate(-5.8 -24.34)"/><path class="e" d="M102.72,124.6a1.52,1.52,0,0,1-1.41-.65,3,3,0,0,1-.3-1.68c0-3.24,0-4.27,0-4.27h-.82a4.68,4.68,0,0,0,.89-1.08,7.89,7.89,0,0,0,.68-1.3h.49v1.61h.85a2.91,2.91,0,0,0,1.26-.14s0,.18,0,.53a4.9,4.9,0,0,0,0,.51,3,3,0,0,0-1.26-.13h-.85v4.34a2.19,2.19,0,0,0,.16,1,.89.89,0,0,0,.91.46,1.51,1.51,0,0,0,1.08-.39C104.44,123.56,104.36,124.6,102.72,124.6Z" transform="translate(-5.8 -24.34)"/><path class="e" d="M108.73,124.64c-2.93,0-3-1.72-3-3.72,0-1.13.09-1.8.09-2.74,0-.35,0-.68-.44-.86a1.19,1.19,0,0,1,.84-.22c.85,0,.91.45.91.89s-.13,2-.13,2.79c0,1.8.07,3,1.83,3a3.81,3.81,0,0,0,1.34-.18v-3c0-2.23-.08-2.59-.27-3l-.12-.22,1.72-.32s-.1,1.13-.1,3.64c0,2.71.12,3,.25,3.25A5.89,5.89,0,0,1,108.73,124.64Z" transform="translate(-5.8 -24.34)"/><path class="e" d="M119.61,124.33a9.15,9.15,0,0,1-2.25.21c-1.2,0-4.1,0-4.1-3.6a3.49,3.49,0,0,1,3.85-3.85,7,7,0,0,1,1,.06,4.91,4.91,0,0,0-.32-2.26l-.12-.22,1.7-.32s0,1.41,0,2.73v4.07a12.19,12.19,0,0,0,.19,3.07ZM118.15,118a3.81,3.81,0,0,0-.78,0c-1,0-2.77.18-2.77,3,0,2.57,1.61,2.83,2.77,2.83a6.12,6.12,0,0,0,.78,0Z" transform="translate(-5.8 -24.34)"/><path class="e" d="M127,117.92a33.71,33.71,0,0,1-2,6.41c-.83,1.83-1.82,2.88-3.3,2.88-.77,0-.9-.11-.9-.11s0-.34,0-.75,0-.83,0-.83c.44.69.63.92,1,.92.71,0,1.26-.67,1.62-1.23l.07-.11-1.77-5c-.67-1.9-.91-2.58-1.3-2.93,0,0,.43,0,1.17,0s1.24,0,1.24,0a.8.8,0,0,0-.36.74,7.19,7.19,0,0,0,.5,2l1,3.09a6.85,6.85,0,0,1,.24.85,17.75,17.75,0,0,0,1.45-5.83.89.89,0,0,0-.36-.85s.4,0,1.11,0,1,0,1,0A1.58,1.58,0,0,0,127,117.92Z" transform="translate(-5.8 -24.34)"/><path class="e" d="M134.53,124.65a3.51,3.51,0,0,1-3.37-3.8,3.65,3.65,0,0,1,3.45-3.83,3.52,3.52,0,0,1,3.37,3.81A3.65,3.65,0,0,1,134.53,124.65Zm.08-6.85c-.9.16-2.08.86-2.08,3s1.09,2.86,2,3c.92-.17,2.09-.86,2.09-3S135.52,118,134.61,117.8Z" transform="translate(-5.8 -24.34)"/><path class="e" d="M140.67,124.46c-.76,0-1.06,0-1.06,0l.12-.22c.26-.5.32-.85.32-3.28v-2.86h-.76a1.6,1.6,0,0,0,.76-1.47v-2.31h3s0,.19,0,.53,0,.55,0,.55-.28-.27-1.26-.27h-.53v2.19h.45a3.24,3.24,0,0,0,1.27-.15s0,.21,0,.56a5,5,0,0,0,0,.52,3.59,3.59,0,0,0-1.27-.14h-.45V121c0,2.41.07,2.78.34,3.3l.11.22S141.44,124.46,140.67,124.46Z" transform="translate(-5.8 -24.34)"/><path class="f" d="M14.86,135.52a1.59,1.59,0,0,0-.55-.45,3.6,3.6,0,0,0-1.73-.39h-.86v4.16c0,4.62.06,4.68.39,5.31l.15.27s-.57,0-1.92,0-1.94,0-1.94,0l.14-.27c.32-.6.4-.71.4-5.47v-4H8.08a3.57,3.57,0,0,0-1.73.39,1.74,1.74,0,0,0-.55.45s0-.46,0-1.29,0-1.13,0-1.13h9s0,.35,0,1.13S14.86,135.49,14.86,135.52Z" transform="translate(-5.8 -24.34)"/><path class="f" d="M26.37,144.42s-.57,0-1.92,0-1.94,0-1.94,0l.15-.27c.3-.55.39-.71.39-4.6H19.16c0,3.91.08,4,.4,4.6l.14.27s-.57,0-1.92,0-1.93,0-1.93,0l.14-.27c.32-.58.4-.71.4-5.47s-.07-4.69-.4-5.32l-.14-.27s.55,0,1.93,0,1.92,0,1.92,0l-.14.27c-.29.54-.4.7-.4,4.33h3.89c0-3.63-.08-3.76-.39-4.33l-.15-.27s.56,0,1.94,0,1.92,0,1.92,0l-.14.27c-.32.59-.4.71-.4,5.48,0,4.62.07,4.68.4,5.31Z" transform="translate(-5.8 -24.34)"/><path class="f" d="M35.45,143.69l0,.53a11.1,11.1,0,0,1-2.81.22c-2,0-2.82-.19-3.49-.78s-.81-1.52-.81-3.06v-3.49c0-1.54.08-2.48.84-3.16s1.46-.86,3.53-.86a15,15,0,0,1,2.73.16s0,.32,0,1.09,0,1.23,0,1.26a1.53,1.53,0,0,0-.49-.43,3.67,3.67,0,0,0-1.78-.45c-.67,0-1.44.05-1.79.62-.22.34-.27.69-.27,1.8v.79h1.52a3.74,3.74,0,0,0,1.75-.3,2.53,2.53,0,0,0,.57-.41s0,.46,0,1.54,0,1.47,0,1.5a3.07,3.07,0,0,0-.57-.42,3.61,3.61,0,0,0-1.75-.31H31.09v.92c0,1.07,0,1.43.25,1.77.35.57,1.19.58,1.8.58a2.61,2.61,0,0,0,2.49-1.39S35.53,142.28,35.45,143.69Z" transform="translate(-5.8 -24.34)"/><path class="f" d="M53.24,144.42s-.5,0-1.86,0-1.89,0-1.89,0l.14-.27c.3-.55.4-.71.4-5.47v-4.15a9.78,9.78,0,0,1-.38,1.51l-3,7-3-6.94a8.83,8.83,0,0,1-.38-1.51v4.29c0,4.62.07,4.68.4,5.31l.14.27s-.52,0-1.54,0-1.55,0-1.55,0l.14-.27c.3-.57.4-.71.4-5.47s-.07-4.69-.4-5.32l-.14-.27s.78,0,2.32,0,2,0,2,0l1.56,3.65a6.93,6.93,0,0,1,.38,1.16,4,4,0,0,1,.38-1.13L49,133.09s.43,0,2,0,2.27,0,2.27,0l-.15.27c-.28.55-.39.71-.39,5.48,0,4.62.06,4.68.39,5.31Z" transform="translate(-5.8 -24.34)"/><path class="f" d="M58.75,144.42s-.58,0-1.93,0-1.93,0-1.93,0l.14-.27c.32-.6.4-.71.4-5.47s-.07-4.69-.4-5.32l-.14-.27s.54,0,1.92,0,1.94,0,1.94,0l-.15.27c-.31.6-.39.71-.39,5.48,0,4.62.06,4.68.39,5.31Z" transform="translate(-5.8 -24.34)"/><path class="f" d="M64.32,144.44c-.64,0-1.84-.05-2.37-.05-1,0-1.54,0-1.54,0l.15-.27c.31-.58.39-.71.39-5.47s-.06-4.69-.39-5.32l-.15-.27s.56,0,1.51,0c.64,0,1.8-.05,2.48-.05,2.54,0,6.46.18,6.46,5.5C70.86,144.3,66.84,144.44,64.32,144.44Zm.25-9.83a6.19,6.19,0,0,0-.84,0v8.19s.29,0,.86,0c2.32,0,3.33-1.36,3.33-4.16S66.94,134.61,64.57,134.61Z" transform="translate(-5.8 -24.34)"/><path class="f" d="M76.23,144.44c-.64,0-1.84-.05-2.37-.05-1,0-1.54,0-1.54,0l.14-.27c.32-.58.4-.71.4-5.47s-.06-4.69-.4-5.32l-.14-.27s.56,0,1.51,0c.63,0,1.79-.05,2.48-.05,2.54,0,6.46.18,6.46,5.5C82.77,144.3,78.75,144.44,76.23,144.44Zm.25-9.83a6.19,6.19,0,0,0-.84,0v8.19s.29,0,.86,0c2.31,0,3.33-1.36,3.33-4.16S78.85,134.61,76.48,134.61Z" transform="translate(-5.8 -24.34)"/><path class="f" d="M91.26,143.8l0,.61h-7l.14-.27c.32-.58.4-.71.4-5.47s-.06-4.69-.4-5.32l-.14-.27s.54,0,2,0,1.92,0,1.92,0l-.16.28c-.35.61-.43.93-.43,4.53v4.9h1.07c2,0,2.22-.46,2.81-1.31C91.44,141.49,91.36,142.12,91.26,143.8Z" transform="translate(-5.8 -24.34)"/><path class="f" d="M100,143.69l0,.53a11,11,0,0,1-2.81.22c-2,0-2.82-.19-3.49-.78s-.81-1.52-.81-3.06v-3.49c0-1.54.08-2.48.84-3.16s1.46-.86,3.53-.86a15,15,0,0,1,2.73.16s0,.32,0,1.09,0,1.23,0,1.26a1.53,1.53,0,0,0-.49-.43,3.67,3.67,0,0,0-1.78-.45c-.66,0-1.44.05-1.79.62-.22.34-.27.69-.27,1.8v.79h1.52a3.74,3.74,0,0,0,1.75-.3,2.53,2.53,0,0,0,.57-.41s0,.46,0,1.54,0,1.47,0,1.5a2.31,2.31,0,0,0-.57-.42,3.61,3.61,0,0,0-1.75-.31H95.66v.92c0,1.07,0,1.43.25,1.77.35.57,1.19.58,1.8.58a2.61,2.61,0,0,0,2.49-1.39S100.11,142.28,100,143.69Z" transform="translate(-5.8 -24.34)"/><path class="f" d="M113.38,144.39c-1.59,0-2.21,0-2.21,0a1.11,1.11,0,0,0,.51-1,12.42,12.42,0,0,0-.46-2.65l-.1-.33h-3.28a15.38,15.38,0,0,0-.37,2.83c0,.76.23,1,.43,1.15,0,0-.62,0-1.79,0s-1.67,0-1.67,0a1.92,1.92,0,0,0,.59-.89c.44-1.06,1.27-6.49,3.41-10.44,0,0,.49,0,1.76,0s1.85,0,1.85,0l2,7.57c.59,2.22.82,3.19,1.41,3.76C115.49,144.42,114.9,144.39,113.38,144.39Zm-3.46-9.19c-.1-.46-.19-1-.19-1a25.83,25.83,0,0,0-1.56,4.62h2.59Z" transform="translate(-5.8 -24.34)"/><path class="f" d="M121.24,144.58c-4.34,0-5.3-3.2-5.3-5.62,0-3.82,2.22-6,6.12-6a7.84,7.84,0,0,1,3.16.46s0,.34,0,1.32,0,1.4,0,1.4a3,3,0,0,0-3-1.51c-2.24,0-3.4,1.4-3.4,4.37,0,2.39.55,4,2.35,4a1.67,1.67,0,0,0,1.85-1.84c0-1-.39-1.57-1.31-1.57a1.31,1.31,0,0,0-1,.35c0-.78.59-1.81,2.37-1.81a2.48,2.48,0,0,1,2.65,2.79C125.81,144.28,122.67,144.58,121.24,144.58Z" transform="translate(-5.8 -24.34)"/><path class="f" d="M134.64,143.69l0,.53a11.1,11.1,0,0,1-2.81.22c-2,0-2.83-.19-3.5-.78s-.81-1.52-.81-3.06v-3.49c0-1.54.08-2.48.85-3.16s1.46-.86,3.52-.86a15,15,0,0,1,2.73.16s0,.32,0,1.09,0,1.23,0,1.26a1.67,1.67,0,0,0-.5-.43,3.66,3.66,0,0,0-1.77-.45c-.67,0-1.45.05-1.8.62-.22.34-.27.69-.27,1.8v.79h1.53a3.72,3.72,0,0,0,1.74-.3,2.26,2.26,0,0,0,.57-.41s0,.46,0,1.54,0,1.47,0,1.5a2.31,2.31,0,0,0-.57-.42,3.59,3.59,0,0,0-1.74-.31h-1.53v.92c0,1.07,0,1.43.26,1.77.35.57,1.19.58,1.79.58a2.59,2.59,0,0,0,2.49-1.39S134.72,142.28,134.64,143.69Z" transform="translate(-5.8 -24.34)"/><path class="f" d="M139.34,144.52a7.64,7.64,0,0,1-2.94-.46s0-.38,0-1.27,0-1.48,0-1.48a3.17,3.17,0,0,0,2.73,1.56c1.07,0,1.72-.29,1.72-1.13,0-.68-.42-1-1.34-1.48l-1.12-.63c-1.31-.73-2.27-1.56-2.27-3.29,0-2.38,1.68-3.35,4.22-3.35a7.39,7.39,0,0,1,2.94.46s0,.38,0,1.26,0,1.52,0,1.52a3.13,3.13,0,0,0-2.77-1.57c-1.14,0-1.82.32-1.82,1.24s.63,1.14,1.33,1.54l1.18.65c1.35.76,2.2,1.57,2.2,3.21C143.4,143.49,142,144.52,139.34,144.52Z" transform="translate(-5.8 -24.34)"/></svg>