<svg id="BG" xmlns="http://www.w3.org/2000/svg" viewBox="0 0 304.72 86.32"><defs><style>.cls-1,.cls-2,.cls-3{fill:#fff;}.cls-1{opacity:0.7;}.cls-2{opacity:0.95;}</style></defs><title>180509 ZDB-Logo</title><g id="Ebene_1" data-name="Ebene 1"><polygon class="cls-1" points="22.88 35.32 22.85 35.25 10.63 39.69 10.63 60.01 21.32 38.34 22.88 35.32"/><path class="cls-1" d="M46,34.87l-.07,0Z"/><path class="cls-1" d="M73.42,23.9V11.36L48,20.57V34.33c5.81-1.11,8.28,2.34,8.28,11,0,10.42-3.69,15.82-11.1,18.52L36,67.22v8.69L65.9,65.06V56.78l5.55-2a5.81,5.81,0,0,1,2-.43V49.5a5.84,5.84,0,0,1-2.14,1.3l-5.38,2V45.32l5.18-1.88a4.2,4.2,0,0,1,2.34-.35V38.2a13.72,13.72,0,0,0-2.17.62L61.4,42.4V28.26Z"/><path class="cls-1" d="M46.66,34.66h0Z"/><path class="cls-1" d="M40.68,41.65,45.12,40A8.79,8.79,0,0,1,48,39.39V34.33a19.42,19.42,0,0,0-2.89.83L36,38.48V24.94l12-4.37V7.08L10.63,20.66V34.79l17.9-6.51v4L18.08,53.43l-1.56,3,0,.1L28.6,52.13,28.53,57l-17.9,6.51v8.1L40.68,60.7Z"/><path class="cls-2" d="M51.44,47.08c0-7.43-1.75-8.71-6.32-7l-4.44,1.61V60.7l4.44-1.62C49.52,57.48,51.44,55.05,51.44,47.08Z"/><path class="cls-2" d="M65.9,65.06,71.55,63c2.6-1,3.93-2.47,3.93-5.69,0-2.79-1.19-3.59-4-2.55l-5.55,2Z"/><path class="cls-2" d="M74.73,45.78c0-2.68-1.12-3.27-3.65-2.34L65.9,45.32v7.44l5.38-2A4.78,4.78,0,0,0,74.73,45.78Z"/><path class="cls-1" d="M73.42,23.9V38.2h0c3.85-.75,5.78,1,5.78,5a9.17,9.17,0,0,1-3.42,7.45v.08c2.81-.14,4.36,1.55,4.36,5.31,0,5.14-2.5,9.19-8.63,11.42L61.4,71.14v8.09L98.81,65.65v-51Z"/><path class="cls-1" d="M72.72,38.36l-.38.1Z"/><path class="cls-1" d="M71.25,38.82l.79-.27Z"/><path class="cls-2" d="M61.4,42.4l9.85-3.58a13.72,13.72,0,0,1,2.17-.62V23.9l-12,4.36Z"/><path class="cls-2" d="M36,38.48l9.14-3.32A19.42,19.42,0,0,1,48,34.33V20.57L36,24.94Z"/><path class="cls-3" d="M123.51,33.63H110.67v-1.7l9.91-15H111V15h12.25v1.7l-9.92,15h10.2Z"/><path class="cls-3" d="M137.23,33.63H126.82V15h10.41v1.93H129v6h7.75v1.91H129v6.88h8.24Z"/><path class="cls-3" d="M141,33.63V15h2.17V33.63Z"/><path class="cls-3" d="M154.16,33.63H152V16.88h-5.91V15h14v1.93h-5.92Z"/><path class="cls-3" d="M173.74,28.66A4.58,4.58,0,0,1,172,32.5a7.77,7.77,0,0,1-4.86,1.38A12.19,12.19,0,0,1,162,33v-2.1a13.28,13.28,0,0,0,2.5.77,13.08,13.08,0,0,0,2.69.28,5.42,5.42,0,0,0,3.27-.82,2.72,2.72,0,0,0,1.1-2.3,3,3,0,0,0-.39-1.59,3.67,3.67,0,0,0-1.31-1.14,17.86,17.86,0,0,0-2.77-1.19,8.91,8.91,0,0,1-3.73-2.21,4.89,4.89,0,0,1-1.12-3.33A4.13,4.13,0,0,1,163.86,16a6.74,6.74,0,0,1,4.29-1.28,12.69,12.69,0,0,1,5.12,1l-.68,1.89a11.69,11.69,0,0,0-4.49-1,4.33,4.33,0,0,0-2.7.75,2.41,2.41,0,0,0-1,2.05,3.12,3.12,0,0,0,.36,1.59A3.35,3.35,0,0,0,166,22.15a14.53,14.53,0,0,0,2.6,1.14,10.39,10.39,0,0,1,4,2.25A4.41,4.41,0,0,1,173.74,28.66Z"/><path class="cls-3" d="M185.48,16.62a6.13,6.13,0,0,0-4.86,2.05,8.27,8.27,0,0,0-1.78,5.62A8.44,8.44,0,0,0,180.56,30a6.11,6.11,0,0,0,4.9,2,16.73,16.73,0,0,0,4.46-.71v1.91a13.93,13.93,0,0,1-4.79.72,8.08,8.08,0,0,1-6.37-2.5q-2.25-2.5-2.25-7.12a11.25,11.25,0,0,1,1.08-5.06,7.76,7.76,0,0,1,3.12-3.34,9.39,9.39,0,0,1,4.8-1.18,11.61,11.61,0,0,1,5.13,1.07l-.92,1.87A9.93,9.93,0,0,0,185.48,16.62Z"/><path class="cls-3" d="M208,33.63h-2.17V24.84H196v8.79h-2.17V15H196v8h9.84V15H208Z"/><path class="cls-3" d="M215.08,25.86v7.77H212.9V15H218a8,8,0,0,1,5.07,1.32,4.74,4.74,0,0,1,1.65,4,4.94,4.94,0,0,1-3.76,5l5.07,8.4H223.5L219,25.86Zm0-1.86h3a5.15,5.15,0,0,0,3.38-.92,3.41,3.41,0,0,0,1.07-2.74,3.15,3.15,0,0,0-1.09-2.67,6,6,0,0,0-3.51-.82h-2.82Z"/><path class="cls-3" d="M229.09,33.63V15h2.17V33.63Z"/><path class="cls-3" d="M238.31,33.63h-2.17V15h10.41v1.93h-8.24v6.83h7.74v1.93h-7.74Z"/><path class="cls-3" d="M256.56,33.63h-2.17V16.88h-5.92V15h14v1.93h-5.92Z"/><path class="cls-3" d="M275.8,33.63H265.39V15H275.8v1.93h-8.24v6h7.74v1.91h-7.74v6.88h8.24Z"/><path class="cls-3" d="M294.1,33.63h-2.48L281.41,18h-.1c.13,1.84.2,3.53.2,5.06V33.63h-2V15H282l10.18,15.61h.1c0-.23-.05-1-.11-2.21s-.08-2.14-.07-2.68V15h2Z"/><path class="cls-3" d="M127.1,55.51q0,4.62-2.51,7.07T117.37,65h-5.18V46.35h5.72a8.37,8.37,0,0,1,9.19,9.16Zm-2.3.08A7.52,7.52,0,0,0,123,50.08a7.34,7.34,0,0,0-5.45-1.85h-3.16V63.15H117c2.59,0,4.53-.64,5.84-1.91A7.57,7.57,0,0,0,124.8,55.59Z"/><path class="cls-3" d="M142.45,65l-2.33-5.94h-7.49L130.33,65h-2.19l7.38-18.76h1.83L144.69,65Zm-3-7.9-2.17-5.79c-.28-.73-.57-1.63-.87-2.69a24.32,24.32,0,0,1-.8,2.69l-2.2,5.79Z"/><path class="cls-3" d="M151.43,65h-2.17V48.28h-5.92V46.35h14v1.93h-5.92Z"/><path class="cls-3" d="M170.67,65H160.26V46.35h10.41v1.93h-8.24v6h7.74v1.91h-7.74v6.87h8.24Z"/><path class="cls-3" d="M189,65h-2.48L176.28,49.35h-.1c.13,1.84.2,3.53.2,5.06V65h-2V46.35h2.45L187,62h.1c0-.23-.05-1-.11-2.22s-.08-2.14-.07-2.67V46.35h2Z"/><path class="cls-3" d="M193.86,46.35h5.27q3.72,0,5.38,1.11A3.91,3.91,0,0,1,206.17,51a4.09,4.09,0,0,1-.92,2.74,4.46,4.46,0,0,1-2.7,1.4v.13q4.24.73,4.25,4.47a4.83,4.83,0,0,1-1.69,3.91A7.21,7.21,0,0,1,200.37,65h-6.51Zm2.17,8h3.58a5.77,5.77,0,0,0,3.31-.73,2.78,2.78,0,0,0,1-2.43,2.47,2.47,0,0,0-1.12-2.27,7.08,7.08,0,0,0-3.58-.69H196Zm0,1.84v7h3.9a5.57,5.57,0,0,0,3.4-.87,3.23,3.23,0,0,0,1.14-2.74A2.91,2.91,0,0,0,203.3,57a6.25,6.25,0,0,0-3.55-.81Z"/><path class="cls-3" d="M222.63,65l-2.33-5.94h-7.48L210.52,65h-2.2l7.39-18.76h1.82L224.88,65Zm-3-7.9-2.17-5.79a26.07,26.07,0,0,1-.87-2.69,24.52,24.52,0,0,1-.81,2.69l-2.2,5.79Z"/><path class="cls-3" d="M242.26,65h-2.47L229.58,49.35h-.11c.14,1.84.21,3.53.21,5.06V65h-2V46.35h2.46L240.31,62h.1c0-.23,0-1-.11-2.22s-.09-2.14-.07-2.67V46.35h2Z"/><path class="cls-3" d="M260.64,65h-2.55L251.28,56l-1.95,1.74V65h-2.18V46.35h2.18v9.26l8.47-9.26h2.56l-7.51,8.11Z"/></g></svg>