<?xml version="1.0" encoding="utf-8"?>
<!-- Generator: Adobe Illustrator 18.1.1, SVG Export Plug-In . SVG Version: 6.00 Build 0)  -->
<!DOCTYPE svg PUBLIC "-//W3C//DTD SVG 1.1//EN" "http://www.w3.org/Graphics/SVG/1.1/DTD/svg11.dtd">
<svg version="1.1" id="Ebene_1" xmlns="http://www.w3.org/2000/svg" xmlns:xlink="http://www.w3.org/1999/xlink" x="0px" y="0px"
	 viewBox="0 0 89 57" enable-background="new 0 0 89 57" xml:space="preserve">
<path id="path2810_1_" opacity="0.2" fill="#FFFFFF" d="M27.3,0v57h0.8V0H27.3z M58.4,0v57h0.8V0H58.4z"/>
<path id="path2814_1_" opacity="0.2" fill="#FFFFFF" d="M88.2,0v57H89V0H88.2z M0,0v57h0.8V0H0z"/>
<path id="path2818_1_" opacity="0.2" fill="#FFFFFF" d="M47.9,0v57h0.8V0H47.9z M68,0v57h0.8V0H68z M8,0v57h0.8V0H8z"/>
<path id="path2822_1_" opacity="0.2" fill="#FFFFFF" d="M11.9,0v57h0.8V0H11.9z M43.6,0v57h0.8V0H43.6z"/>
<path id="path2826_1_" opacity="0.2" fill="#FFFFFF" d="M18.6,0v57h0.8V0H18.6z M75.1,0v57h0.8V0H75.1z"/>
<path id="path2846_1_" opacity="0.2" fill="#FFFFFF" d="M34.1,0v57h0.8V0H34.1z"/>
<path id="path2854_1_" opacity="0.2" fill="#FFFFFF" d="M38.1,0v57h0.8V0H38.1z M79.3,0v57h0.8V0H79.3z"/>
<path id="path2866_1_" opacity="0.2" fill="#FFFFFF" d="M53,0v57h0.8V0H53z"/>
<path id="path2870_1_" fill="#FFFFFF" d="M43.4,11.8c-2.2,0-4.3,1-4.3,3.5c0,1.5,1.1,2.6,3,2.9l2.2,0.3c0.8,0.1,1.2,0.4,1.2,0.9
	c0,0.1,0,0.2-0.1,0.3c0,0,0,0.1-0.1,0.1c-0.2,0.4-0.7,0.6-1.2,0.7c-0.1,0-0.2,0-0.3,0s-0.2,0-0.3,0c-0.2,0-0.3,0-0.5,0
	c-0.1,0-0.3,0-0.4-0.1c-0.8-0.2-1.5-0.6-2.1-1.2l-2,1.3c1.2,1.4,2.5,2,4,2.1c0.2,0,0.4,0,0.6,0c0.2,0,0.5,0,0.8,0c0.1,0,0.3,0,0.4,0
	c1.7-0.2,3.6-1.1,3.6-3.6c0-0.6-0.2-1.1-0.5-1.5c-0.1-0.1-0.1-0.1-0.2-0.2c-0.7-0.7-1.8-1-3.1-1.2l-1-0.2c-1-0.2-1.4-0.4-1.4-1
	c0-0.7,0.9-1.1,1.5-1.1c1,0,1.9,0.4,2.5,1c0.1,0.1,0.2,0.2,0.3,0.3l2-1.4C46.8,12.5,45.1,11.8,43.4,11.8z M54.3,11.8
	c-2.4,0-4,1.4-4.7,3.4c-0.1,0.2-0.1,0.3-0.1,0.5c-0.1,0.5-0.2,1-0.2,1.6c0,2.6,1.5,4.8,4.1,5.4c0.4,0.1,0.8,0.1,1.2,0.1
	c1.8,0,3.3-1,4.2-2.7l-2.1-1c-0.4,0.9-1.4,1.5-2.1,1.5c-2,0-2.7-1.8-2.7-3.3c0-0.1,0-0.3,0-0.4c0.1-2,1.2-2.9,2.6-2.9
	c0.8,0,1.6,0.5,2,1.2c0.1,0.1,0.1,0.2,0.2,0.4l2.1-1C57.7,12.8,56.4,11.8,54.3,11.8z M0,12.1v10.4h4c3.2,0,5.3-1.5,5.3-5.2
	S7.2,12.1,4,12.1H0z M10.9,12.1v10.4H19v-2h-5.5V18h4.7v-2h-4.7v-1.9h5v-2H10.9z M20.3,12.1v6.8c0,2.8,2.4,3.9,4.4,3.9
	c2,0,4.4-1.1,4.4-3.9v-6.8h-2.6v6.6c0,1.2-0.5,2-1.8,2c-0.2,0-0.3,0-0.5,0c-1-0.2-1.3-1-1.3-2v-6.6H20.3z M30.3,12.1v2H33v8.4h2.6
	v-8.4h2.7v-2H30.3z M59.8,12.1v10.4h2.6v-4.4h3.9v4.4h2.6V12.1h-2.6v3.7h-3.9v-3.7H59.8z M70.9,12.1v10.4H79v-2h-5.5V18h4.7v-2h-4.7
	v-1.9h5v-2H70.9z M2.6,14.3h1.5c2,0,2.7,1.3,2.7,3c0,1.7-0.7,3-2.6,3H2.6V14.3z M39.1,22.9c-3.3,0-5.3,2.6-5.3,5.5
	c0,2.9,1.9,5.5,5.3,5.5c3.3,0,5.2-2.6,5.2-5.5C44.4,25.4,42.4,22.9,39.1,22.9z M0,23.2v10.4h2.4V27h0l3.8,6.5h2.6V23.2H6.4v6.7h0
	l-3.8-6.7H0z M13.7,23.2L9.9,33.6h2.8l0.5-1.6H17l0.5,1.6h2.8l-3.9-10.4H13.7z M20.5,23.2v2h2.7v8.4h2.6v-8.4h2.7v-2H20.5z
	 M29.7,23.2v10.4h2.6V23.2H29.7z M46,23.2v10.4h2.4V27h0l3.8,6.5h2.6V23.2h-2.4v6.7h0l-3.8-6.7H46z M59.6,23.2l-3.8,10.4h2.8
	l0.5-1.6h3.8l0.5,1.6h2.8l-3.9-10.4H59.6z M67.3,23.2v10.4H74v-2.2h-4.1v-8.2H67.3z M39.1,25.1c1.9,0,2.6,1.7,2.6,3.3
	c0,1.6-0.7,3.3-2.6,3.3c-2,0-2.7-1.8-2.7-3.3c0-0.1,0-0.3,0-0.4C36.6,25.9,37.7,25.1,39.1,25.1z M15,25.7L15,25.7l1.3,4.3h-2.6
	L15,25.7z M61,25.7L61,25.7l1.3,4.3h-2.6L61,25.7z M43.2,34c-3.3,0-5.3,2.6-5.3,5.5c0,2.9,1.9,5.5,5.3,5.5c3.3,0,5.2-2.6,5.2-5.5
	C48.4,36.6,46.5,34,43.2,34z M0,34.3v10.4h4.7c0.3,0,0.6,0,0.9,0C7.7,44.4,9,43.6,9,41.7c0-0.6-0.2-1-0.4-1.4c0-0.1-0.1-0.1-0.1-0.2
	c-0.5-0.5-1.2-0.8-2-0.8v0c1.4-0.3,2.2-1,2.2-2.4c0-1.9-1.4-2.7-3.5-2.7H0z M10.5,34.3v10.4h2.6V34.3H10.5z M15.1,34.3v10.4h4.7
	c0.3,0,0.6,0,0.9,0c2.1-0.2,3.3-1.1,3.3-2.9c0-0.6-0.2-1-0.4-1.4c0-0.1-0.1-0.1-0.1-0.2c-0.5-0.5-1.2-0.8-2-0.8v0
	c1.4-0.3,2.2-1,2.2-2.4c0-1.9-1.4-2.7-3.5-2.7H15.1z M25.7,34.3v10.4h6.7v-2.2h-4v-8.2H25.7z M33.8,34.3v10.4h2.6V34.3H33.8z
	 M49.2,34.3v2h2.7v8.4h2.6v-8.4h2.7v-2H49.2z M58.4,34.3v10.4H61v-4.4h3.9v4.4h2.6V34.3h-2.6V38H61v-3.7H58.4z M69.5,34.3v10.4h8.1
	v-2h-5.5v-2.4h4.7v-2h-4.7v-1.9h5.1v-2H69.5z M79.1,34.3v10.4h2.6v-3l1.6-1.6l2.8,4.6H89l-3.9-6.5l3.8-3.9h-3.4l-3.7,4.1v-4.1H79.1z
	 M43.2,36.2c1.9,0,2.6,1.7,2.6,3.3c0,1.6-0.7,3.3-2.6,3.3c-2,0-2.7-1.8-2.7-3.3c0-0.1,0-0.3,0-0.4C40.7,37,41.8,36.2,43.2,36.2z
	 M2.5,36.2h2.2c0.9,0,1.3,0.2,1.3,1.1c0,0.8-0.5,1.1-1.3,1.1H2.5V36.2z M17.6,36.2h2.2c0.9,0,1.3,0.2,1.3,1.1c0,0.8-0.5,1.1-1.3,1.1
	h-2.2V36.2z M2.5,40.3h2.6c1,0,1.3,0.4,1.3,1.2c0,0.7-0.4,1.2-1.7,1.2H2.5V40.3z M17.7,40.3h2.6c1,0,1.3,0.4,1.3,1.2
	c0,0.7-0.4,1.2-1.7,1.2h-2.1V40.3z"/>
</svg>