<?xml version="1.0" encoding="utf-8"?>
<!-- Generator: Adobe Illustrator 18.1.1, SVG Export Plug-In . SVG Version: 6.00 Build 0)  -->
<!DOCTYPE svg PUBLIC "-//W3C//DTD SVG 1.1//EN" "http://www.w3.org/Graphics/SVG/1.1/DTD/svg11.dtd">
<svg version="1.1" id="Ebene_1" xmlns="http://www.w3.org/2000/svg" xmlns:xlink="http://www.w3.org/1999/xlink" x="0px" y="0px"
	 viewBox="700.5 0 169 38" enable-background="new 700.5 0 169 38" xml:space="preserve">
<image display="none" overflow="visible" enable-background="new    " width="169" height="38" xlink:href="staatsbib-preussischer-kulturbesitz.png.xhtml.png"  transform="matrix(1 0 0 1 701 381)">
</image>
<g>
	<path fill="#FFFFFF" d="M700.5,0.6V27c2.8-3.4,5.2-4.8,6.2-5.3c0.1,0,0.1-0.1,0.1-0.1s-0.1-0.1-0.2-0.1c-0.5,0-1.5,0.3-2.2,0.5
		c-0.2,0.1-0.2,0-0.1-0.2c0.1-0.3,0.8-0.9,2.8-1.7c3.2-1.3,6.6-1.2,8.1-0.4c0.7,0.3,1,1,1,1.3l0,0c-2.4,0-3.4,0.1-4.2,0.3
		c-0.2,0.1-0.2,0.2,0,0.4c0.3,0.3,1.4,0.5,1.8,0.6c0.1,0,0.2,0,0.3-0.1s0.2-0.2,0.3-0.3c0.1-0.1,0.1-0.1,0.3-0.1s0.7,0,1.2,0
		c2.1,0,4.4,0.6,4.4,3.5c0,1.1-0.4,2.1-0.6,2.4c-0.1,0.2-0.3,0.2-0.3-0.1c0.1-1.4-0.2-2-2.5-2c-1.2,0-3,0.2-3.8,0.6
		c-0.3,0.1-0.3,0.4,0,0.4c0.5,0,2.2-0.2,3.5-0.2c0.8,0,1.5,0.1,1.7,0.4c0.1,0.1,0.1,0.2-0.1,0.2c-0.1,0-0.3,0-0.6,0
		c-2.6,0-5.2,1.6-5.2,4.2c0,4.3,6.3,6,14.2,6c6.3,0,10.6-1.4,10.6-1.4V0.6L700.5,0.6L700.5,0.6z"/>
	<path fill="#FFFFFF" d="M859.6,30h-0.9v5.7h0.9V30z M779.3,30h-0.9v5.7h0.9V30z M753.1,30.7c0,1.1-0.5,1.4-1.5,1.4h-1.4v-2.8h1.4
		C752.7,29.3,753.1,29.7,753.1,30.7 M754.1,30.7c0-1.6-0.8-2.3-2.5-2.3h-2.4v7.2h1v-2.7h1.4C753.4,33,754.1,32.2,754.1,30.7
		 M758.7,31l0.1-0.9c-0.2,0-0.4-0.1-0.6-0.1c-0.8,0-1.4,0.5-1.8,1.3l0,0l-0.1-1.2h-0.7v5.6h0.9v-2.9c0-1.2,0.7-2,1.6-2
		C758.3,30.9,758.5,30.9,758.7,31 M763.4,32.3h-2.9c0.1-1.1,0.5-1.6,1.5-1.6C762.8,30.7,763.4,31.2,763.4,32.3 M764.2,33
		c0-0.1,0-0.3,0-0.4c0-1.8-0.9-2.6-2.3-2.6c-1.6,0-2.4,1-2.4,2.7c0,2.2,0.8,3.1,2.7,3.1c0.7,0,1.3-0.2,1.8-0.4l-0.1-0.8
		c-0.5,0.2-1,0.4-1.6,0.4c-1.2,0-1.8-0.5-1.8-2L764.2,33L764.2,33z M770.1,33.8v-3.9h-0.9v3.8c0,0.8-0.5,1.2-1.3,1.2
		c-0.9,0-1.3-0.4-1.3-1.2v-3.8h-0.9v3.9c0,1.3,0.7,2,2.2,2S770.1,35.1,770.1,33.8 M776.7,33.9c0-1.6-2.1-1.8-2.1-2.3
		c0-0.4,1.3-0.9,1.3-1.8c0-0.8-0.7-1.4-1.7-1.4c-1.4,0-2.3,0.9-2.3,2.5v6.3h0.9v-6.4c0-1.1,0.4-1.6,1.3-1.6c0.6,0,0.9,0.3,0.9,0.6
		c0,0.8-1.4,1.2-1.4,1.9c0,0.9,2.2,1.1,2.2,2.2c0,0.6-0.6,1-1.4,1c-0.4,0-0.7-0.1-1-0.2l-0.1,0.8c0.4,0.2,0.8,0.2,1.2,0.2
		C775.9,35.7,776.7,35,776.7,33.9 M779.4,28.5c0-0.3-0.2-0.5-0.6-0.5c-0.4,0-0.6,0.2-0.6,0.5c0,0.4,0.2,0.5,0.6,0.5
		S779.4,28.8,779.4,28.5 M781.9,31.5c0-0.5,0.4-0.8,1.1-0.8c0.5,0,1,0.1,1.5,0.3l0.1-0.8c-0.5-0.2-1-0.3-1.6-0.3c-1.3,0-2,0.6-2,1.6
		c0,1.9,2.9,1.3,2.9,2.6c0,0.5-0.3,0.9-1.2,0.9c-0.6,0-1.2-0.2-1.6-0.5l-0.1,0.8c0.4,0.3,1.1,0.5,1.8,0.5c1.4,0,2-0.7,2-1.8
		C784.8,32.1,781.9,32.7,781.9,31.5 M786.9,32.8c0-1.5,0.5-2,1.7-2c0.4,0,0.8,0.1,1.2,0.3l0.1-0.8c-0.4-0.2-0.9-0.3-1.4-0.3
		c-1.7,0-2.5,1-2.5,2.9c0,2.1,0.8,3,2.4,3c0.6,0,1.1-0.2,1.5-0.4l-0.1-0.7c-0.3,0.2-0.8,0.3-1.2,0.3C787.5,35,786.9,34.4,786.9,32.8
		 M794.9,35.7h0.9v-3.8c0-1.3-0.7-2-1.9-2c-0.6,0-1.2,0.2-1.6,0.6l0,0v-0.8V28l-0.9,0.1v7.6h0.9v-4.4c0.2-0.4,0.8-0.7,1.4-0.7
		c0.9,0,1.3,0.4,1.3,1.2v3.9H794.9z M801,32.3h-2.9c0.1-1.1,0.5-1.6,1.5-1.6C800.4,30.7,801,31.2,801,32.3 M801.8,33
		c0-0.1,0-0.3,0-0.4c0-1.8-0.9-2.6-2.3-2.6c-1.6,0-2.4,1-2.4,2.7c0,2.2,0.8,3.1,2.7,3.1c0.7,0,1.3-0.2,1.8-0.4l-0.1-0.8
		c-0.5,0.2-1,0.4-1.6,0.4c-1.2,0-1.8-0.5-1.8-2L801.8,33L801.8,33z M806.4,31l0.1-0.9c-0.2,0-0.4-0.1-0.6-0.1
		c-0.8,0-1.4,0.5-1.8,1.3l0,0l-0.1-1.2h-0.7v5.6h0.9v-2.9c0-1.2,0.7-2,1.6-2C806,30.9,806.2,30.9,806.4,31 M816.6,35.7l-2.6-3.8
		l2.5-3.4h-1.2l-2.2,3.1H812v-3.1h-1v7.2h1v-3.3h1.1l2.3,3.3L816.6,35.7L816.6,35.7z M822.1,33.8v-3.9h-0.9v3.8
		c0,0.8-0.5,1.2-1.3,1.2c-0.9,0-1.3-0.4-1.3-1.2v-3.8h-0.9v3.9c0,1.3,0.7,2,2.2,2S822.1,35.1,822.1,33.8 M824,35.7h0.9V28l-0.9,0.1
		V35.7z M828.1,30.7h1.4V30h-1.4v-1.5l-0.7,0.1l-0.2,1.4h-0.8v0.7h0.8v3.5c0,1,0.5,1.6,1.5,1.6c0.3,0,0.6-0.1,0.8-0.1l-0.1-0.7
		c-0.1,0-0.3,0.1-0.5,0.1c-0.5,0-0.8-0.2-0.8-0.8V30.7z M835.3,33.8v-3.9h-0.9v3.8c0,0.8-0.5,1.2-1.3,1.2c-0.9,0-1.3-0.4-1.3-1.2
		v-3.8h-0.9v3.9c0,1.3,0.7,2,2.2,2C834.5,35.8,835.3,35.1,835.3,33.8 M840.1,31l0.1-0.9c-0.2,0-0.4-0.1-0.6-0.1
		c-0.8,0-1.4,0.5-1.8,1.3l0,0l-0.1-1.2H837v5.6h0.9v-2.9c0-1.2,0.7-2,1.6-2C839.7,30.9,839.9,30.9,840.1,31 M845.3,32.8
		c0,1.8-0.6,2.2-1.5,2.2c-0.7,0-1.2-0.3-1.4-0.7v-3c0.3-0.4,0.8-0.7,1.4-0.7C844.8,30.7,845.3,31.1,845.3,32.8 M846.3,32.8
		L846.3,32.8c0-2.2-0.8-3-2.2-3c-0.6,0-1.2,0.2-1.6,0.6l0,0v-0.8v-1.7l-0.9,0.1v7.6h0.6l0.1-0.6l0,0c0.4,0.4,1,0.7,1.7,0.7
		C845.4,35.8,846.3,35,846.3,32.8 M851.2,32.3h-2.9c0.1-1.1,0.5-1.6,1.5-1.6C850.6,30.7,851.2,31.2,851.2,32.3 M852,33
		c0-0.1,0-0.3,0-0.4c0-1.8-0.9-2.6-2.3-2.6c-1.6,0-2.4,1-2.4,2.7c0,2.2,0.8,3.1,2.7,3.1c0.7,0,1.3-0.2,1.8-0.4l-0.1-0.8
		c-0.5,0.2-1,0.4-1.6,0.4c-1.2,0-1.8-0.5-1.8-2L852,33L852,33z M854.1,31.5c0-0.5,0.4-0.8,1.1-0.8c0.5,0,1,0.1,1.5,0.3l0.1-0.8
		c-0.5-0.2-1-0.3-1.6-0.3c-1.3,0-2,0.6-2,1.6c0,1.9,2.9,1.3,2.9,2.6c0,0.5-0.3,0.9-1.2,0.9c-0.6,0-1.2-0.2-1.6-0.5l-0.1,0.8
		c0.4,0.3,1.1,0.5,1.8,0.5c1.4,0,2-0.7,2-1.8C857,32.1,854.1,32.7,854.1,31.5 M859.7,28.5c0-0.3-0.2-0.5-0.6-0.5
		c-0.4,0-0.6,0.2-0.6,0.5c0,0.4,0.2,0.5,0.6,0.5S859.7,28.8,859.7,28.5 M862.9,30.7h1.4V30h-1.4v-1.5l-0.7,0.1L862,30h-0.8v0.7h0.8
		v3.5c0,1,0.5,1.6,1.5,1.6c0.3,0,0.6-0.1,0.8-0.1l-0.1-0.7c-0.1,0-0.3,0.1-0.5,0.1c-0.5,0-0.8-0.2-0.8-0.8V30.7z M866.9,34.3
		l2.6-3.7v-0.7h-3.9v0.8h2.9l0,0l-0.5,0.6l-2.6,3.7v0.7h4.1v-0.8h-3.1l0,0L866.9,34.3z"/>
	<path fill="#FFFFFF" d="M794.3,21.1v-3.9c0-1.5-0.8-2.3-2.1-2.3c-0.6,0-1.2,0.2-1.7,0.6l-0.2-0.5l-1.1,0.1v6.1h1.6v-4.4
		c0.2-0.3,0.6-0.5,1-0.5c0.6,0,1,0.3,1,0.9v3.9L794.3,21.1L794.3,21.1z M787.6,13.6c0-0.4-0.3-0.7-0.9-0.7c-0.6,0-0.9,0.2-0.9,0.7
		s0.3,0.7,0.9,0.7C787.3,14.3,787.6,14.1,787.6,13.6 M787.5,21.1V15l-1.6,0.1v6H787.5z M784.1,21.1v-7.9l-1.6,0.1v7.8H784.1z
		 M779.2,21.1v-3c0-1,0.6-1.6,1.4-1.6c0.2,0,0.5,0,0.7,0.1l0.1-1.5c-0.2-0.1-0.4-0.1-0.7-0.1c-0.7,0-1.3,0.4-1.7,1.1l0,0l-0.1-1
		l-1.2,0.1v6h1.5V21.1z M772.8,17.4c0.1-0.9,0.4-1.2,1.1-1.2c0.7,0,1.1,0.3,1.1,1.2H772.8z M774.3,21.2c0.8,0,1.5-0.2,2-0.4
		l-0.2-1.3c-0.5,0.2-1.1,0.3-1.6,0.3c-1,0-1.5-0.4-1.6-1.4h3.6c0-0.2,0-0.5,0-0.7c0-1.9-1-2.8-2.5-2.8c-1.8,0-2.7,1.1-2.7,3.1
		C771.2,20.1,772.2,21.2,774.3,21.2 M768.4,15.7c0,0.6-0.3,0.8-0.9,0.8h-1.4v-1.6h1.4C768.1,14.9,768.4,15.2,768.4,15.7 M768.6,18.7
		c0,0.7-0.3,0.9-1,0.9h-1.5v-1.8h1.5C768.3,17.8,768.6,18.1,768.6,18.7 M770.3,18.9c0-1-0.4-1.5-1.3-1.8l0,0c0.6-0.3,1-0.8,1-1.6
		c0-1.2-0.8-1.9-2.5-1.9h-3.1v7.5h3.1C769.5,21.1,770.3,20.2,770.3,18.9 M760.1,15h-1.6v3.9c0,0.6-0.3,0.9-1,0.9s-1-0.3-1-0.9V15
		h-1.6v3.9c0,1.4,0.8,2.3,2.6,2.3c1.7,0,2.6-0.8,2.6-2.3V15z M753.7,16.1V15h-4.4l-0.1,1.3h2.6l0,0l-0.5,0.6l-2.2,3V21h4.6v-1.3
		h-2.8l0,0l0.5-0.6L753.7,16.1z"/>
	<path fill="#FFFFFF" d="M828.9,0.2l-1.6,0.1v7.8h1.6V5.5h0.8l1.3,2.6h1.8l-1.7-3.3l1.7-2.8h-1.7l-1.3,2.2H829L828.9,0.2L828.9,0.2z
		 M822.5,4.4c0.1-0.9,0.4-1.2,1.1-1.2c0.7,0,1.1,0.3,1.1,1.2H822.5z M823.9,8.2c0.8,0,1.5-0.2,2-0.4l-0.2-1.3
		c-0.5,0.2-1.1,0.3-1.6,0.3c-1,0-1.5-0.4-1.6-1.4h3.6c0-0.2,0-0.5,0-0.7c0-1.9-1-2.8-2.5-2.8c-1.8,0-2.7,1.1-2.7,3.1
		C820.9,7.1,821.8,8.2,823.9,8.2 M819.8,8.1V4.2c0-1.5-0.8-2.3-2-2.3c-0.5,0-1.1,0.1-1.5,0.5l0,0V1.6V0.2l-1.6,0.1v7.8h1.6V3.7
		c0.2-0.3,0.6-0.5,1-0.5c0.7,0,1,0.3,1,0.9V8L819.8,8.1L819.8,8.1z M813.5,3.2V2h-1.4V0.6l-1.2,0.1L810.6,2h-0.8v1.2h0.7v3.1
		c0,1.1,0.6,1.8,1.8,1.8c0.4,0,0.8-0.1,1-0.2l-0.1-1.1c-0.1,0-0.3,0.1-0.5,0.1c-0.5,0-0.7-0.2-0.7-0.7v-3L813.5,3.2L813.5,3.2z
		 M805.3,5.1c0-1.5,0.3-1.9,1.2-1.9s1.2,0.4,1.2,1.9S807.4,7,806.5,7S805.3,6.6,805.3,5.1 M809.2,5.1c0-2.2-0.8-3.2-2.8-3.2
		c-1.9,0-2.8,0.9-2.8,3.2c0,2.2,0.9,3.2,2.8,3.2C808.4,8.2,809.2,7.3,809.2,5.1 M802.4,0.7c0-0.4-0.3-0.7-0.9-0.7
		c-0.6,0-0.9,0.2-0.9,0.7s0.3,0.7,0.9,0.7C802.1,1.3,802.4,1.1,802.4,0.7 M802.3,8.1V2l-1.6,0.1v6H802.3z M798.9,8.1V0.2l-1.6,0.1
		v7.8H798.9z M794.5,5.1c0,1.6-0.4,1.9-1.1,1.9c-0.5,0-0.9-0.2-1.1-0.5V3.8c0.2-0.3,0.6-0.5,1.1-0.5C794.1,3.3,794.5,3.5,794.5,5.1
		 M796.1,5c0-2.2-0.9-3.1-2.3-3.1c-0.6,0-1.1,0.2-1.5,0.5l0,0V1.6V0.2l-1.6,0.1v7.8h1.1l0.2-0.5c0.4,0.4,0.9,0.6,1.6,0.6
		C795.1,8.2,796.1,7.3,796.1,5L796.1,5z M789.1,0.7c0-0.4-0.3-0.7-0.9-0.7c-0.6,0-0.9,0.2-0.9,0.7s0.3,0.7,0.9,0.7
		C788.8,1.3,789.1,1.1,789.1,0.7 M789,8.1V2l-1.6,0.1v6H789z M784.5,5.1c0,1.6-0.4,1.9-1.1,1.9c-0.5,0-0.9-0.2-1.1-0.5V3.8
		c0.2-0.3,0.6-0.5,1.1-0.5C784.1,3.3,784.5,3.5,784.5,5.1 M786.1,5c0-2.2-0.9-3.1-2.3-3.1c-0.6,0-1.1,0.2-1.5,0.5l0,0V1.6V0.2
		l-1.6,0.1v7.8h1.1l0.2-0.5c0.4,0.4,0.9,0.6,1.6,0.6C785.1,8.2,786.1,7.3,786.1,5L786.1,5z M779.5,6.2c0-2-2.8-1.5-2.8-2.4
		c0-0.3,0.3-0.5,0.8-0.5s1.1,0.1,1.6,0.3l0.1-1.3c-0.5-0.2-1.1-0.3-1.7-0.3c-1.6,0-2.3,0.8-2.3,1.9c0,2.1,2.8,1.5,2.8,2.5
		c0,0.4-0.3,0.6-0.9,0.6c-0.5,0-1.2-0.1-1.7-0.4l-0.2,1.3c0.5,0.3,1.2,0.4,1.9,0.4C778.8,8.2,779.5,7.4,779.5,6.2 M774.4,3.2V2H773
		V0.6l-1.2,0.1L771.5,2h-0.8v1.2h0.7v3.1c0,1.1,0.6,1.8,1.8,1.8c0.4,0,0.8-0.1,1-0.2l-0.1-1.1c-0.1,0-0.3,0.1-0.5,0.1
		c-0.5,0-0.7-0.2-0.7-0.7v-3L774.4,3.2L774.4,3.2z M768.3,6.2c0,0.3-0.5,0.6-1,0.6s-0.9-0.2-0.9-0.8c0-0.5,0.3-0.8,1-0.8
		c0.4,0,0.7,0.1,0.9,0.1V6.2z M768.6,8.1h1.2V4.3c0-1.7-0.6-2.4-2.4-2.4c-0.8,0-1.5,0.1-2.1,0.4l0.1,1.2c0.6-0.2,1-0.3,1.7-0.3
		c0.8,0,1.2,0.3,1.2,0.9v0.4c-0.3-0.1-0.7-0.2-1.2-0.2c-1.4,0-2.2,0.8-2.2,1.9c0,1.3,0.7,1.9,1.9,1.9c0.7,0,1.3-0.3,1.7-0.7l0,0
		L768.6,8.1z M762.2,6.2c0,0.3-0.5,0.6-1,0.6s-0.9-0.2-0.9-0.8c0-0.5,0.3-0.8,1-0.8c0.4,0,0.7,0.1,0.9,0.1V6.2z M762.6,8.1h1.2V4.3
		c0-1.7-0.6-2.4-2.4-2.4c-0.8,0-1.5,0.1-2.1,0.4l0.1,1.2c0.6-0.2,1-0.3,1.7-0.3c0.8,0,1.2,0.3,1.2,0.9v0.4c-0.3-0.1-0.7-0.2-1.2-0.2
		c-1.4,0-2.2,0.8-2.2,1.9c0,1.3,0.7,1.9,1.9,1.9c0.7,0,1.3-0.3,1.7-0.7l0,0L762.6,8.1z M758.1,3.2V2h-1.4V0.6l-1.2,0.1L755.2,2h-0.8
		v1.2h0.7v3.1c0,1.1,0.6,1.8,1.8,1.8c0.4,0,0.8-0.1,1-0.2l-0.1-1.1c-0.1,0-0.3,0.1-0.5,0.1c-0.5,0-0.7-0.2-0.7-0.7v-3L758.1,3.2
		L758.1,3.2z M753.9,5.8c0-2.6-3.5-2-3.5-3.2c0-0.4,0.3-0.7,1.2-0.7c0.6,0,1.2,0.1,1.8,0.3l0.2-1.4c-0.6-0.2-1.4-0.4-2.1-0.4
		c-1.9,0-2.7,1-2.7,2.3c0,2.5,3.5,2,3.5,3.2c0,0.5-0.4,0.8-1.2,0.8c-0.7,0-1.4-0.2-2.1-0.6l-0.2,1.5c0.7,0.4,1.5,0.6,2.3,0.6
		C752.9,8.2,753.9,7.3,753.9,5.8"/>
</g>
</svg>